<?xml version="1.0" encoding="UTF-8" standalone="no"?>
<!DOCTYPE svg PUBLIC "-//W3C//DTD SVG 1.1//EN"
 "http://www.w3.org/Graphics/SVG/1.1/DTD/svg11.dtd">
<!-- Generated by graphviz version 2.43.0 (0)
 -->
<!-- Title: controllers_diagram Pages: 1 -->
<svg width="823pt" height="732pt"
 viewBox="0.00 0.00 823.00 732.00" xmlns="http://www.w3.org/2000/svg" xmlns:xlink="http://www.w3.org/1999/xlink">
<g id="graph0" class="graph" transform="scale(1 1) rotate(0) translate(4 728)">
<title>controllers_diagram</title>
<polygon fill="transparent" stroke="transparent" points="-4,4 -4,-728 819,-728 819,4 -4,4"/>
<!-- _diagram_info -->
<g id="node1" class="node">
<title>_diagram_info</title>
<text text-anchor="start" x="399" y="-454.6" font-family="Times,serif" font-size="13.00">Controllers diagram</text>
<text text-anchor="start" x="399" y="-440.6" font-family="Times,serif" font-size="13.00">Date: Nov 21 2021 &#45; 20:54</text>
<text text-anchor="start" x="399" y="-426.6" font-family="Times,serif" font-size="13.00">Migration version: 20211121111847</text>
<text text-anchor="start" x="399" y="-412.6" font-family="Times,serif" font-size="13.00">Generated by RailRoady 1.6.0</text>
<text text-anchor="start" x="399" y="-398.6" font-family="Times,serif" font-size="13.00">http://railroady.prestonlee.com</text>
</g>
<!-- DashboardController -->
<g id="node2" class="node">
<title>DashboardController</title>
<path fill="none" stroke="black" d="M80,-629.5C80,-629.5 223,-629.5 223,-629.5 229,-629.5 235,-635.5 235,-641.5 235,-641.5 235,-710.5 235,-710.5 235,-716.5 229,-722.5 223,-722.5 223,-722.5 80,-722.5 80,-722.5 74,-722.5 68,-716.5 68,-710.5 68,-710.5 68,-641.5 68,-641.5 68,-635.5 74,-629.5 80,-629.5"/>
<text text-anchor="middle" x="151.5" y="-707.3" font-family="Times,serif" font-size="14.00">DashboardController</text>
<polyline fill="none" stroke="black" points="68,-699.5 235,-699.5 "/>
<text text-anchor="start" x="76" y="-684.3" font-family="Times,serif" font-size="14.00">index</text>
<polyline fill="none" stroke="black" points="68,-676.5 235,-676.5 "/>
<polyline fill="none" stroke="black" points="68,-652.5 235,-652.5 "/>
<text text-anchor="start" x="76" y="-637.3" font-family="Times,serif" font-size="14.00">_layout</text>
</g>
<!-- ExerciseComputationController -->
<g id="node3" class="node">
<title>ExerciseComputationController</title>
<path fill="none" stroke="black" d="M471,-153.5C471,-153.5 690,-153.5 690,-153.5 696,-153.5 702,-159.5 702,-165.5 702,-165.5 702,-234.5 702,-234.5 702,-240.5 696,-246.5 690,-246.5 690,-246.5 471,-246.5 471,-246.5 465,-246.5 459,-240.5 459,-234.5 459,-234.5 459,-165.5 459,-165.5 459,-159.5 465,-153.5 471,-153.5"/>
<text text-anchor="middle" x="580.5" y="-231.3" font-family="Times,serif" font-size="14.00">ExerciseComputationController</text>
<polyline fill="none" stroke="black" points="459,-223.5 702,-223.5 "/>
<text text-anchor="start" x="467" y="-208.3" font-family="Times,serif" font-size="14.00">index</text>
<polyline fill="none" stroke="black" points="459,-200.5 702,-200.5 "/>
<polyline fill="none" stroke="black" points="459,-176.5 702,-176.5 "/>
<text text-anchor="start" x="467" y="-161.3" font-family="Times,serif" font-size="14.00">_layout</text>
</g>
<!-- WeightLogsController -->
<g id="node4" class="node">
<title>WeightLogsController</title>
<path fill="none" stroke="black" d="M12,-0.5C12,-0.5 161,-0.5 161,-0.5 167,-0.5 173,-6.5 173,-12.5 173,-12.5 173,-81.5 173,-81.5 173,-87.5 167,-93.5 161,-93.5 161,-93.5 12,-93.5 12,-93.5 6,-93.5 0,-87.5 0,-81.5 0,-81.5 0,-12.5 0,-12.5 0,-6.5 6,-0.5 12,-0.5"/>
<text text-anchor="middle" x="86.5" y="-78.3" font-family="Times,serif" font-size="14.00">WeightLogsController</text>
<polyline fill="none" stroke="black" points="0,-70.5 173,-70.5 "/>
<text text-anchor="start" x="8" y="-55.3" font-family="Times,serif" font-size="14.00">index</text>
<polyline fill="none" stroke="black" points="0,-47.5 173,-47.5 "/>
<polyline fill="none" stroke="black" points="0,-23.5 173,-23.5 "/>
<text text-anchor="start" x="8" y="-8.3" font-family="Times,serif" font-size="14.00">_layout</text>
</g>
<!-- AnalyticsDashController -->
<g id="node5" class="node">
<title>AnalyticsDashController</title>
<path fill="none" stroke="black" d="M403,-34.5C403,-34.5 570,-34.5 570,-34.5 576,-34.5 582,-40.5 582,-46.5 582,-46.5 582,-115.5 582,-115.5 582,-121.5 576,-127.5 570,-127.5 570,-127.5 403,-127.5 403,-127.5 397,-127.5 391,-121.5 391,-115.5 391,-115.5 391,-46.5 391,-46.5 391,-40.5 397,-34.5 403,-34.5"/>
<text text-anchor="middle" x="486.5" y="-112.3" font-family="Times,serif" font-size="14.00">AnalyticsDashController</text>
<polyline fill="none" stroke="black" points="391,-104.5 582,-104.5 "/>
<text text-anchor="start" x="399" y="-89.3" font-family="Times,serif" font-size="14.00">index</text>
<polyline fill="none" stroke="black" points="391,-81.5 582,-81.5 "/>
<polyline fill="none" stroke="black" points="391,-57.5 582,-57.5 "/>
<text text-anchor="start" x="399" y="-42.3" font-family="Times,serif" font-size="14.00">_layout</text>
</g>
<!-- ApplicationController -->
<g id="node6" class="node">
<title>ApplicationController</title>
<path fill="none" stroke="black" d="M471,-272.5C471,-272.5 698,-272.5 698,-272.5 704,-272.5 710,-278.5 710,-284.5 710,-284.5 710,-353.5 710,-353.5 710,-359.5 704,-365.5 698,-365.5 698,-365.5 471,-365.5 471,-365.5 465,-365.5 459,-359.5 459,-353.5 459,-353.5 459,-284.5 459,-284.5 459,-278.5 465,-272.5 471,-272.5"/>
<text text-anchor="middle" x="584.5" y="-350.3" font-family="Times,serif" font-size="14.00">ApplicationController</text>
<polyline fill="none" stroke="black" points="459,-342.5 710,-342.5 "/>
<polyline fill="none" stroke="black" points="459,-318.5 710,-318.5 "/>
<text text-anchor="start" x="467" y="-303.3" font-family="Times,serif" font-size="14.00">configure_permitted_parameters</text>
<polyline fill="none" stroke="black" points="459,-295.5 710,-295.5 "/>
<text text-anchor="start" x="467" y="-280.3" font-family="Times,serif" font-size="14.00">_layout</text>
</g>
<!-- Users::PasswordsController -->
<g id="node7" class="node">
<title>Users::PasswordsController</title>
<path fill="none" stroke="black" d="M522,-510.5C522,-510.5 714,-510.5 714,-510.5 720,-510.5 726,-516.5 726,-522.5 726,-522.5 726,-592.5 726,-592.5 726,-598.5 720,-604.5 714,-604.5 714,-604.5 522,-604.5 522,-604.5 516,-604.5 510,-598.5 510,-592.5 510,-592.5 510,-522.5 510,-522.5 510,-516.5 516,-510.5 522,-510.5"/>
<text text-anchor="middle" x="618" y="-589.3" font-family="Times,serif" font-size="14.00">Users::PasswordsController</text>
<polyline fill="none" stroke="black" points="510,-581.5 726,-581.5 "/>
<polyline fill="none" stroke="black" points="510,-557.5 726,-557.5 "/>
<polyline fill="none" stroke="black" points="510,-533.5 726,-533.5 "/>
<text text-anchor="start" x="518" y="-518.3" font-family="Times,serif" font-size="14.00">_layout</text>
</g>
<!-- Users::OmniauthCallbacksController -->
<g id="node8" class="node">
<title>Users::OmniauthCallbacksController</title>
<path fill="none" stroke="black" d="M165,-255.5C165,-255.5 420,-255.5 420,-255.5 426,-255.5 432,-261.5 432,-267.5 432,-267.5 432,-337.5 432,-337.5 432,-343.5 426,-349.5 420,-349.5 420,-349.5 165,-349.5 165,-349.5 159,-349.5 153,-343.5 153,-337.5 153,-337.5 153,-267.5 153,-267.5 153,-261.5 159,-255.5 165,-255.5"/>
<text text-anchor="middle" x="292.5" y="-334.3" font-family="Times,serif" font-size="14.00">Users::OmniauthCallbacksController</text>
<polyline fill="none" stroke="black" points="153,-326.5 432,-326.5 "/>
<polyline fill="none" stroke="black" points="153,-302.5 432,-302.5 "/>
<polyline fill="none" stroke="black" points="153,-278.5 432,-278.5 "/>
<text text-anchor="start" x="161" y="-263.3" font-family="Times,serif" font-size="14.00">_layout</text>
</g>
<!-- Users::RegistrationsController -->
<g id="node9" class="node">
<title>Users::RegistrationsController</title>
<path fill="none" stroke="black" d="M131,-119.5C131,-119.5 343,-119.5 343,-119.5 349,-119.5 355,-125.5 355,-131.5 355,-131.5 355,-201.5 355,-201.5 355,-207.5 349,-213.5 343,-213.5 343,-213.5 131,-213.5 131,-213.5 125,-213.5 119,-207.5 119,-201.5 119,-201.5 119,-131.5 119,-131.5 119,-125.5 125,-119.5 131,-119.5"/>
<text text-anchor="middle" x="237" y="-198.3" font-family="Times,serif" font-size="14.00">Users::RegistrationsController</text>
<polyline fill="none" stroke="black" points="119,-190.5 355,-190.5 "/>
<polyline fill="none" stroke="black" points="119,-166.5 355,-166.5 "/>
<polyline fill="none" stroke="black" points="119,-142.5 355,-142.5 "/>
<text text-anchor="start" x="127" y="-127.3" font-family="Times,serif" font-size="14.00">_layout</text>
</g>
<!-- Users::ConfirmationsController -->
<g id="node10" class="node">
<title>Users::ConfirmationsController</title>
<path fill="none" stroke="black" d="M131,-493.5C131,-493.5 348,-493.5 348,-493.5 354,-493.5 360,-499.5 360,-505.5 360,-505.5 360,-575.5 360,-575.5 360,-581.5 354,-587.5 348,-587.5 348,-587.5 131,-587.5 131,-587.5 125,-587.5 119,-581.5 119,-575.5 119,-575.5 119,-505.5 119,-505.5 119,-499.5 125,-493.5 131,-493.5"/>
<text text-anchor="middle" x="239.5" y="-572.3" font-family="Times,serif" font-size="14.00">Users::ConfirmationsController</text>
<polyline fill="none" stroke="black" points="119,-564.5 360,-564.5 "/>
<polyline fill="none" stroke="black" points="119,-540.5 360,-540.5 "/>
<polyline fill="none" stroke="black" points="119,-516.5 360,-516.5 "/>
<text text-anchor="start" x="127" y="-501.3" font-family="Times,serif" font-size="14.00">_layout</text>
</g>
<!-- Users::SessionsController -->
<g id="node11" class="node">
<title>Users::SessionsController</title>
<path fill="none" stroke="black" d="M624,-0.5C624,-0.5 803,-0.5 803,-0.5 809,-0.5 815,-6.5 815,-12.5 815,-12.5 815,-82.5 815,-82.5 815,-88.5 809,-94.5 803,-94.5 803,-94.5 624,-94.5 624,-94.5 618,-94.5 612,-88.5 612,-82.5 612,-82.5 612,-12.5 612,-12.5 612,-6.5 618,-0.5 624,-0.5"/>
<text text-anchor="middle" x="713.5" y="-79.3" font-family="Times,serif" font-size="14.00">Users::SessionsController</text>
<polyline fill="none" stroke="black" points="612,-71.5 815,-71.5 "/>
<polyline fill="none" stroke="black" points="612,-47.5 815,-47.5 "/>
<polyline fill="none" stroke="black" points="612,-23.5 815,-23.5 "/>
<text text-anchor="start" x="620" y="-8.3" font-family="Times,serif" font-size="14.00">_layout</text>
</g>
<!-- Users::UnlocksController -->
<g id="node12" class="node">
<title>Users::UnlocksController</title>
<path fill="none" stroke="black" d="M284,-629.5C284,-629.5 457,-629.5 457,-629.5 463,-629.5 469,-635.5 469,-641.5 469,-641.5 469,-711.5 469,-711.5 469,-717.5 463,-723.5 457,-723.5 457,-723.5 284,-723.5 284,-723.5 278,-723.5 272,-717.5 272,-711.5 272,-711.5 272,-641.5 272,-641.5 272,-635.5 278,-629.5 284,-629.5"/>
<text text-anchor="middle" x="370.5" y="-708.3" font-family="Times,serif" font-size="14.00">Users::UnlocksController</text>
<polyline fill="none" stroke="black" points="272,-700.5 469,-700.5 "/>
<polyline fill="none" stroke="black" points="272,-676.5 469,-676.5 "/>
<polyline fill="none" stroke="black" points="272,-652.5 469,-652.5 "/>
<text text-anchor="start" x="280" y="-637.3" font-family="Times,serif" font-size="14.00">_layout</text>
</g>
</g>
</svg>
