<?xml version="1.0" encoding="UTF-8" standalone="no"?>
<!DOCTYPE svg PUBLIC "-//W3C//DTD SVG 1.1//EN"
 "http://www.w3.org/Graphics/SVG/1.1/DTD/svg11.dtd">
<!-- Generated by graphviz version 2.43.0 (0)
 -->
<!-- Title: models_diagram Pages: 1 -->
<svg width="1218pt" height="588pt"
 viewBox="0.00 0.00 1217.50 588.00" xmlns="http://www.w3.org/2000/svg" xmlns:xlink="http://www.w3.org/1999/xlink">
<g id="graph0" class="graph" transform="scale(1 1) rotate(0) translate(4 584)">
<title>models_diagram</title>
<polygon fill="transparent" stroke="transparent" points="-4,4 -4,-584 1213.5,-584 1213.5,4 -4,4"/>
<!-- _diagram_info -->
<g id="node1" class="node">
<title>_diagram_info</title>
<text text-anchor="start" x="8" y="-461.1" font-family="Times,serif" font-size="13.00">Models diagram</text>
<text text-anchor="start" x="8" y="-447.1" font-family="Times,serif" font-size="13.00">Date: Nov 21 2021 &#45; 20:54</text>
<text text-anchor="start" x="8" y="-433.1" font-family="Times,serif" font-size="13.00">Migration version: 20211121111847</text>
<text text-anchor="start" x="8" y="-419.1" font-family="Times,serif" font-size="13.00">Generated by RailRoady 1.6.0</text>
<text text-anchor="start" x="8" y="-405.1" font-family="Times,serif" font-size="13.00">http://railroady.prestonlee.com</text>
</g>
<!-- ApplicationRecord -->
<g id="node2" class="node">
<title>ApplicationRecord</title>
<ellipse fill="none" stroke="black" cx="372.5" cy="-436.5" rx="95.58" ry="18"/>
<text text-anchor="middle" x="372.5" y="-432.8" font-family="Times,serif" font-size="14.00">ApplicationRecord</text>
</g>
<!-- FoodFact -->
<g id="node3" class="node">
<title>FoodFact</title>
<path fill="none" stroke="black" d="M498,-293.5C498,-293.5 809,-293.5 809,-293.5 815,-293.5 821,-299.5 821,-305.5 821,-305.5 821,-567.5 821,-567.5 821,-573.5 815,-579.5 809,-579.5 809,-579.5 498,-579.5 498,-579.5 492,-579.5 486,-573.5 486,-567.5 486,-567.5 486,-305.5 486,-305.5 486,-299.5 492,-293.5 498,-293.5"/>
<text text-anchor="middle" x="653.5" y="-564.3" font-family="Times,serif" font-size="14.00">FoodFact</text>
<polyline fill="none" stroke="black" points="486,-556.5 821,-556.5 "/>
<text text-anchor="start" x="494" y="-541.3" font-family="Times,serif" font-size="14.00">id :bigint</text>
<text text-anchor="start" x="494" y="-526.3" font-family="Times,serif" font-size="14.00">name :character varying</text>
<text text-anchor="start" x="494" y="-511.3" font-family="Times,serif" font-size="14.00">food_group :character varying</text>
<text text-anchor="start" x="494" y="-496.3" font-family="Times,serif" font-size="14.00">calories :double precision</text>
<text text-anchor="start" x="494" y="-481.3" font-family="Times,serif" font-size="14.00">fat :double precision</text>
<text text-anchor="start" x="494" y="-466.3" font-family="Times,serif" font-size="14.00">cholestrol :double precision</text>
<text text-anchor="start" x="494" y="-451.3" font-family="Times,serif" font-size="14.00">sodium :double precision</text>
<text text-anchor="start" x="494" y="-436.3" font-family="Times,serif" font-size="14.00">carbohydrate :double precision</text>
<text text-anchor="start" x="494" y="-421.3" font-family="Times,serif" font-size="14.00">fiber :double precision</text>
<text text-anchor="start" x="494" y="-406.3" font-family="Times,serif" font-size="14.00">sugar :double precision</text>
<text text-anchor="start" x="494" y="-391.3" font-family="Times,serif" font-size="14.00">protein :double precision</text>
<text text-anchor="start" x="494" y="-376.3" font-family="Times,serif" font-size="14.00">vitamind :double precision</text>
<text text-anchor="start" x="494" y="-361.3" font-family="Times,serif" font-size="14.00">calcium :double precision</text>
<text text-anchor="start" x="494" y="-346.3" font-family="Times,serif" font-size="14.00">iron :double precision</text>
<text text-anchor="start" x="494" y="-331.3" font-family="Times,serif" font-size="14.00">potassium :double precision</text>
<text text-anchor="start" x="494" y="-316.3" font-family="Times,serif" font-size="14.00">created_at :timestamp(6) without time zone</text>
<text text-anchor="start" x="494" y="-301.3" font-family="Times,serif" font-size="14.00">updated_at :timestamp(6) without time zone</text>
</g>
<!-- User -->
<g id="node4" class="node">
<title>User</title>
<path fill="none" stroke="black" d="M815.5,-0.5C815.5,-0.5 1197.5,-0.5 1197.5,-0.5 1203.5,-0.5 1209.5,-6.5 1209.5,-12.5 1209.5,-12.5 1209.5,-244.5 1209.5,-244.5 1209.5,-250.5 1203.5,-256.5 1197.5,-256.5 1197.5,-256.5 815.5,-256.5 815.5,-256.5 809.5,-256.5 803.5,-250.5 803.5,-244.5 803.5,-244.5 803.5,-12.5 803.5,-12.5 803.5,-6.5 809.5,-0.5 815.5,-0.5"/>
<text text-anchor="middle" x="1006.5" y="-241.3" font-family="Times,serif" font-size="14.00">User</text>
<polyline fill="none" stroke="black" points="803.5,-233.5 1209.5,-233.5 "/>
<text text-anchor="start" x="811.5" y="-218.3" font-family="Times,serif" font-size="14.00">id :bigint</text>
<text text-anchor="start" x="811.5" y="-203.3" font-family="Times,serif" font-size="14.00">email :character varying</text>
<text text-anchor="start" x="811.5" y="-188.3" font-family="Times,serif" font-size="14.00">encrypted_password :character varying</text>
<text text-anchor="start" x="811.5" y="-173.3" font-family="Times,serif" font-size="14.00">reset_password_token :character varying</text>
<text text-anchor="start" x="811.5" y="-158.3" font-family="Times,serif" font-size="14.00">reset_password_sent_at :timestamp without time zone</text>
<text text-anchor="start" x="811.5" y="-143.3" font-family="Times,serif" font-size="14.00">remember_created_at :timestamp without time zone</text>
<text text-anchor="start" x="811.5" y="-128.3" font-family="Times,serif" font-size="14.00">created_at :timestamp(6) without time zone</text>
<text text-anchor="start" x="811.5" y="-113.3" font-family="Times,serif" font-size="14.00">updated_at :timestamp(6) without time zone</text>
<text text-anchor="start" x="811.5" y="-98.3" font-family="Times,serif" font-size="14.00">admin :boolean</text>
<text text-anchor="start" x="811.5" y="-83.3" font-family="Times,serif" font-size="14.00">start_weight :double precision</text>
<text text-anchor="start" x="811.5" y="-68.3" font-family="Times,serif" font-size="14.00">goal_weight :double precision</text>
<text text-anchor="start" x="811.5" y="-53.3" font-family="Times,serif" font-size="14.00">name :character varying</text>
<text text-anchor="start" x="811.5" y="-38.3" font-family="Times,serif" font-size="14.00">age :integer</text>
<text text-anchor="start" x="811.5" y="-23.3" font-family="Times,serif" font-size="14.00">gender :character varying</text>
<text text-anchor="start" x="811.5" y="-8.3" font-family="Times,serif" font-size="14.00">height :double precision</text>
</g>
<!-- WeightLog -->
<g id="node5" class="node">
<title>WeightLog</title>
<path fill="none" stroke="black" d="M851,-376C851,-376 1162,-376 1162,-376 1168,-376 1174,-382 1174,-388 1174,-388 1174,-485 1174,-485 1174,-491 1168,-497 1162,-497 1162,-497 851,-497 851,-497 845,-497 839,-491 839,-485 839,-485 839,-388 839,-388 839,-382 845,-376 851,-376"/>
<text text-anchor="middle" x="1006.5" y="-481.8" font-family="Times,serif" font-size="14.00">WeightLog</text>
<polyline fill="none" stroke="black" points="839,-474 1174,-474 "/>
<text text-anchor="start" x="847" y="-458.8" font-family="Times,serif" font-size="14.00">id :bigint</text>
<text text-anchor="start" x="847" y="-443.8" font-family="Times,serif" font-size="14.00">user_id :bigint</text>
<text text-anchor="start" x="847" y="-428.8" font-family="Times,serif" font-size="14.00">weight :double precision</text>
<text text-anchor="start" x="847" y="-413.8" font-family="Times,serif" font-size="14.00">notes :text</text>
<text text-anchor="start" x="847" y="-398.8" font-family="Times,serif" font-size="14.00">created_at :timestamp(6) without time zone</text>
<text text-anchor="start" x="847" y="-383.8" font-family="Times,serif" font-size="14.00">updated_at :timestamp(6) without time zone</text>
</g>
<!-- WeightLog&#45;&gt;User -->
<g id="edge1" class="edge">
<title>WeightLog&#45;&gt;User</title>
<path fill="none" stroke="#007de0" d="M1006.5,-365.57C1006.5,-336.22 1006.5,-301.03 1006.5,-266.89"/>
<polygon fill="#007de0" stroke="#007de0" points="1006.5,-365.77 1002,-375.77 1006.5,-370.77 1006.5,-375.77 1006.5,-375.77 1006.5,-375.77 1006.5,-370.77 1011,-375.77 1006.5,-365.77 1006.5,-365.77"/>
<polygon fill="#007de0" stroke="#007de0" points="1006.5,-266.81 1011,-256.81 1006.5,-261.81 1006.5,-256.81 1006.5,-256.81 1006.5,-256.81 1006.5,-261.81 1002,-256.81 1006.5,-266.81 1006.5,-266.81"/>
</g>
</g>
</svg>
