<?xml version="1.0" encoding="UTF-8" standalone="no"?>
<!DOCTYPE svg PUBLIC "-//W3C//DTD SVG 1.1//EN"
 "http://www.w3.org/Graphics/SVG/1.1/DTD/svg11.dtd">
<!-- Generated by graphviz version 2.43.0 (0)
 -->
<!-- Title: models_diagram Pages: 1 -->
<svg width="740pt" height="158pt"
 viewBox="0.00 0.00 739.94 158.00" xmlns="http://www.w3.org/2000/svg" xmlns:xlink="http://www.w3.org/1999/xlink">
<g id="graph0" class="graph" transform="scale(1 1) rotate(0) translate(4 154)">
<title>models_diagram</title>
<polygon fill="transparent" stroke="transparent" points="-4,4 -4,-154 735.94,-154 735.94,4 -4,4"/>
<!-- _diagram_info -->
<g id="node1" class="node">
<title>_diagram_info</title>
<text text-anchor="start" x="8" y="-135.6" font-family="Times,serif" font-size="13.00">Models diagram</text>
<text text-anchor="start" x="8" y="-121.6" font-family="Times,serif" font-size="13.00">Date: Nov 21 2021 &#45; 20:54</text>
<text text-anchor="start" x="8" y="-107.6" font-family="Times,serif" font-size="13.00">Migration version: 20211121111847</text>
<text text-anchor="start" x="8" y="-93.6" font-family="Times,serif" font-size="13.00">Generated by RailRoady 1.6.0</text>
<text text-anchor="start" x="8" y="-79.6" font-family="Times,serif" font-size="13.00">http://railroady.prestonlee.com</text>
</g>
<!-- ApplicationRecord -->
<g id="node2" class="node">
<title>ApplicationRecord</title>
<ellipse fill="none" stroke="black" cx="372.5" cy="-111" rx="95.58" ry="18"/>
<text text-anchor="middle" x="372.5" y="-107.3" font-family="Times,serif" font-size="14.00">ApplicationRecord</text>
</g>
<!-- FoodFact -->
<g id="node3" class="node">
<title>FoodFact</title>
<ellipse fill="none" stroke="black" cx="539.5" cy="-111" rx="53.09" ry="18"/>
<text text-anchor="middle" x="539.5" y="-107.3" font-family="Times,serif" font-size="14.00">FoodFact</text>
</g>
<!-- User -->
<g id="node4" class="node">
<title>User</title>
<ellipse fill="none" stroke="black" cx="671.5" cy="-18" rx="33.29" ry="18"/>
<text text-anchor="middle" x="671.5" y="-14.3" font-family="Times,serif" font-size="14.00">User</text>
</g>
<!-- WeightLog -->
<g id="node5" class="node">
<title>WeightLog</title>
<ellipse fill="none" stroke="black" cx="671.5" cy="-111" rx="60.39" ry="18"/>
<text text-anchor="middle" x="671.5" y="-107.3" font-family="Times,serif" font-size="14.00">WeightLog</text>
</g>
<!-- WeightLog&#45;&gt;User -->
<g id="edge1" class="edge">
<title>WeightLog&#45;&gt;User</title>
<path fill="none" stroke="#f91aa7" d="M671.5,-82.55C671.5,-71.08 671.5,-57.79 671.5,-46.34"/>
<polygon fill="#f91aa7" stroke="#f91aa7" points="671.5,-82.88 667,-92.88 671.5,-87.88 671.5,-92.88 671.5,-92.88 671.5,-92.88 671.5,-87.88 676,-92.88 671.5,-82.88 671.5,-82.88"/>
<polygon fill="#f91aa7" stroke="#f91aa7" points="671.5,-46.04 676,-36.04 671.5,-41.04 671.5,-36.04 671.5,-36.04 671.5,-36.04 671.5,-41.04 667,-36.04 671.5,-46.04 671.5,-46.04"/>
</g>
</g>
</svg>
